<svg width="120" height="120" viewBox="0 0 120 120" fill="none" xmlns="http://www.w3.org/2000/svg">
<path d="M59.8138 106.899C85.8943 106.899 107.037 85.7566 107.037 59.6761C107.037 33.5956 85.8943 12.4531 59.8138 12.4531C33.7333 12.4531 12.5908 33.5956 12.5908 59.6761C12.5908 85.7566 33.7333 106.899 59.8138 106.899Z" fill="#233063"/>
<path d="M59.8136 87.2269C75.0819 87.2269 87.4593 74.8495 87.4593 59.5812C87.4593 44.3129 75.0819 31.9355 59.8136 31.9355C44.5454 31.9355 32.168 44.3129 32.168 59.5812C32.168 74.8495 44.5454 87.2269 59.8136 87.2269Z" fill="white"/>
<path d="M59.8147 89.2309C43.5185 89.2309 30.2607 75.9731 30.2607 59.677C30.2607 43.3808 43.5185 30.123 59.8147 30.123C76.1108 30.123 89.3686 43.3808 89.3686 59.677C89.3686 75.9731 76.1108 89.2309 59.8147 89.2309ZM59.8147 30.8369C43.9135 30.8369 30.9745 43.7734 30.9745 59.677C30.9745 75.5806 43.9111 88.5171 59.8147 88.5171C75.7182 88.5171 88.6548 75.5806 88.6548 59.677C88.6548 43.7734 75.7182 30.8369 59.8147 30.8369Z" fill="white"/>
<path d="M48.757 47.8505L48.084 48.5234L70.8712 71.3106L71.5441 70.6376L48.757 47.8505Z" fill="#233063"/>
<path d="M70.8712 47.8495L48.084 70.6367L48.757 71.3097L71.5441 48.5225L70.8712 47.8495Z" fill="#233063"/>
<path d="M100.17 61.7475L98.1645 61.017L96.1611 61.7475L96.8916 59.7417L96.1611 57.7383L98.1645 58.4687L100.17 57.7383L99.4399 59.7417L100.17 61.7475Z" fill="white"/>
<path d="M95.9921 59.3848H90.8027V60.0986H95.9921V59.3848Z" fill="white"/>
<path d="M105.528 59.3848H100.339V60.0986H105.528V59.3848Z" fill="white"/>
<path d="M23.4648 61.7475L21.4614 61.017L19.458 61.7475L20.1861 59.7417L19.458 57.7383L21.4614 58.4687L23.4648 57.7383L22.7368 59.7417L23.4648 61.7475Z" fill="white"/>
<path d="M19.287 59.3867H14.0977V60.1005H19.287V59.3867Z" fill="white"/>
<path d="M28.8232 59.3867H23.6338V60.1005H28.8232V59.3867Z" fill="white"/>
<path d="M21.414 46.4959L21.0833 47.7308L17.9045 46.8813L17.7451 47.4833L28.7353 50.417L28.8471 50.0007L29.1445 50.0792L28.564 52.2491L28.2665 52.1706L28.3784 51.7542L17.3882 48.8205L17.2287 49.4225L20.4075 50.2719L20.0768 51.5068L16.6006 50.5788L17.9378 45.5703L21.414 46.4983V46.4959Z" fill="white"/>
<path d="M32.2164 43.0048L31.2123 45.0153L30.9363 44.8773L31.129 44.4919L25.8706 41.8675L25.252 43.1047L30.5104 45.7291L30.7031 45.3437L30.9791 45.4817L29.975 47.4922L29.699 47.3542L29.8917 46.9688L19.7129 41.8865L19.5201 42.2719L19.2441 42.1339L20.2482 40.1234L20.5242 40.2614L20.3315 40.6468L24.976 42.9667L25.5946 41.7294L20.9501 39.4096L20.7574 39.795L20.4814 39.657L21.4855 37.6465L21.7615 37.7845L21.5688 38.1699L31.7476 43.2522L31.9404 42.8668L32.2164 43.0048Z" fill="white"/>
<path d="M35.5494 38.4939L32.9226 41.9225L32.6775 41.7346L32.9392 41.3919L23.9072 34.4752L23.6455 34.8178L23.4004 34.6298L26.0272 31.2012L28.8824 33.3878L28.0425 34.4847L25.43 32.4836L24.7471 33.3759L28.8681 36.5309L29.8651 35.227L30.1102 35.415L29.1132 36.7189L33.7791 40.2903L34.462 39.398L31.8495 37.397L32.6894 36.3001L35.547 38.4867L35.5494 38.4939Z" fill="white"/>
<path d="M43.9419 31.584L42.0931 32.8617L41.9171 32.6071L42.2716 32.362L37.6271 25.638L41.653 33.1639L40.7441 33.792L34.986 27.4629L39.6329 34.187L39.9874 33.9419L40.1635 34.1965L39.0975 34.9341L38.9215 34.6795L39.276 34.4344L32.8089 25.0764L32.4544 25.3215L32.2783 25.0669L33.7845 24.0248L40.0731 31.0296L35.6189 22.759L37.1251 21.7168L37.3011 21.9714L36.9466 22.2165L43.4137 31.5744L43.7682 31.3294L43.9443 31.584H43.9419Z" fill="white"/>
<path d="M48.4786 27.781C48.8546 28.6637 48.3025 29.7535 47.2533 30.1984C46.204 30.6433 45.0357 30.284 44.6621 29.3989L41.2763 21.421C40.9028 20.5382 41.4524 19.4485 42.5017 19.0035C43.551 18.5586 44.7169 18.9179 45.0928 19.8006L48.4786 27.781ZM47.5007 29.0159L43.5272 19.6483C43.3797 19.301 42.9728 19.1392 42.623 19.2867C42.2733 19.4342 42.1067 19.8411 42.2542 20.1885L46.2278 29.556C46.3753 29.9034 46.7821 30.0651 47.1319 29.9176C47.4817 29.7701 47.6482 29.3632 47.5007 29.0159Z" fill="white"/>
<path d="M54.7603 27.8947L50.6297 28.8227L50.5631 28.5229L50.9843 28.4277L48.4907 17.328L48.0696 17.4232L48.0029 17.1234L50.1943 16.6309L50.2609 16.9307L49.8398 17.0258L52.3333 28.1255L53.3446 27.8971L52.6236 24.6873L53.9727 24.3852L54.7627 27.8947H54.7603Z" fill="white"/>
<path d="M60.0355 15.8343L59.6048 15.8533L60.1307 27.5264L59.0266 27.5764L56.5188 18.3421L56.9257 27.3622L57.3563 27.3432L57.3706 27.6501L56.0762 27.7096L56.062 27.4027L56.4926 27.3837L55.9811 16.0199L55.5504 16.0389L55.5361 15.732L57.2802 15.6534L59.5358 23.886L59.1742 15.8747L58.7435 15.8938L58.7292 15.5868L60.0236 15.5273L60.0379 15.8343H60.0355Z" fill="white"/>
<path d="M66.1857 28.1249L63.9587 27.8418L63.9967 27.5349L64.425 27.5896L64.5559 24.1014L63.321 23.9444L62.5382 27.3516L62.9665 27.4064L62.9284 27.7133L61.6436 27.5491L61.6816 27.2422L62.1099 27.2969L64.7843 15.8594L66.1548 16.0331L65.7955 27.7656L66.2238 27.8204L66.1857 28.1273V28.1249ZM64.5773 23.7921L64.8295 17.2965L63.3781 23.6399L64.5773 23.7921Z" fill="white"/>
<path d="M71.994 29.8535L71.4182 29.6703C70.6782 29.4347 70.3808 28.9446 70.6449 28.1118L71.9345 24.0645C72.0487 23.7052 71.8464 23.3174 71.4848 23.2032L70.909 23.02L69.1268 28.6186L69.5385 28.7494L69.4457 29.0445L67.3066 28.3616L67.3994 28.0666L67.8111 28.1974L71.2635 17.3595L70.8519 17.2286L70.9447 16.9336L73.2503 17.6688C74.3376 18.0162 74.9872 19.0488 74.6945 19.9625L73.9926 22.1658C73.7785 22.8344 73.1146 23.2698 72.3556 23.3174C72.9433 23.8099 73.2384 24.5332 73.0242 25.2018L71.8179 28.9898C71.718 29.2991 71.7608 29.4561 72.0558 29.5513L72.0891 29.5608L71.9963 29.8558L71.994 29.8535ZM72.4437 22.4656L73.6024 18.8252C73.7166 18.4659 73.5144 18.0781 73.1527 17.9639L72.5769 17.7806L71.0018 22.7273L71.5776 22.9105C71.9392 23.0271 72.3294 22.8272 72.4437 22.468V22.4656Z" fill="white"/>
<path d="M80.8474 33.156C80.2977 33.9436 79.0819 34.0554 78.1468 33.4035C77.2117 32.7515 76.8953 31.5714 77.4449 30.7838L82.4011 23.6719C82.9507 22.8844 84.1666 22.7725 85.1017 23.4245C86.0367 24.0764 86.3532 25.2566 85.8036 26.0441L84.6972 27.6312L83.5622 26.8412L85.0993 24.6356C85.3158 24.3262 85.2349 23.8956 84.9232 23.6791C84.6115 23.4625 84.1808 23.5363 83.9643 23.8456L78.1444 32.1924C77.9279 32.5017 78.0088 32.9324 78.3205 33.1489C78.6322 33.3654 79.0629 33.2916 79.2794 32.9823L82.2964 28.6543L81.7301 28.2593L81.9062 28.0071L83.6074 29.192L80.845 33.156H80.8474Z" fill="white"/>
<path d="M84.5449 39.0215L84.1214 38.5885C83.5789 38.0317 83.5456 37.4607 84.169 36.8492L87.2074 33.8797C87.4763 33.6156 87.481 33.1778 87.2145 32.9066L86.791 32.4735L82.5891 36.5827L82.8913 36.892L82.67 37.1085L81.0996 35.5024L81.3209 35.2859L81.6231 35.5952L89.7557 27.6411L89.4535 27.3318L89.6748 27.1152L91.3665 28.845C92.1636 29.6611 92.2516 30.8794 91.5664 31.548L89.9127 33.1659C89.4107 33.6561 88.6184 33.7298 87.9283 33.4158C88.2163 34.1248 88.1377 34.9028 87.6333 35.3954L84.7924 38.1745C84.5592 38.4029 84.5211 38.5599 84.74 38.7812L84.7638 38.805L84.5425 39.0215H84.5449ZM88.409 32.7043L91.1405 30.0323C91.4093 29.7682 91.4141 29.3304 91.1476 29.0592L90.7241 28.6261L87.0123 32.2546L87.4358 32.6877C87.7023 32.9589 88.1401 32.9661 88.409 32.702V32.7043Z" fill="white"/>
<path d="M89.116 42.7286C88.3166 43.2592 87.1435 42.9166 86.513 41.9648C85.8825 41.0155 86.0253 39.802 86.8247 39.2714L94.0508 34.4841C94.8503 33.9536 96.0233 34.2962 96.6514 35.2479C97.282 36.1973 97.1392 37.4107 96.3397 37.9413L89.1137 42.7286H89.116ZM87.7241 41.9934L96.2065 36.3734C96.5206 36.164 96.6062 35.7357 96.3968 35.4192C96.1875 35.1028 95.7568 35.0124 95.4451 35.2217L86.9627 40.8418C86.6486 41.0512 86.563 41.4794 86.7724 41.7959C86.9818 42.1124 87.41 42.2028 87.7241 41.9934Z" fill="white"/>
<path d="M101.167 45.0515L101 44.6518L91.7491 48.5039C90.864 48.8727 89.7766 48.3136 89.3388 47.2619C88.901 46.2102 89.2698 45.0444 90.1549 44.6756L99.4058 40.8234L99.2393 40.4237L99.5248 40.3047L100.388 42.3771L100.103 42.4961L99.9364 42.0963L89.9884 46.2388C89.641 46.3839 89.4744 46.7884 89.6219 47.1406C89.7671 47.4903 90.1716 47.6593 90.5213 47.5141L100.469 43.3717L100.303 42.9743L100.588 42.8554L101.452 44.9278L101.167 45.0467V45.0515Z" fill="white"/>
<path d="M98.3692 53.7012C97.4294 53.8939 96.4681 53.1396 96.2373 52.0237L96.116 51.4313L91.3834 52.4092L91.4715 52.8327L91.1693 52.8946L90.7148 50.696L91.017 50.6342L91.1051 51.0577L102.245 48.7569L102.157 48.3333L102.459 48.2715L102.949 50.6413C103.18 51.7572 102.597 52.8303 101.657 53.0254L98.3692 53.7035V53.7012ZM97.3532 52.4996L102.119 51.5169C102.488 51.4408 102.728 51.0744 102.65 50.7008L102.528 50.1083L96.4205 51.3694L96.5419 51.9619C96.618 52.333 96.9844 52.5757 97.3532 52.4996Z" fill="white"/>
<path d="M26.0968 67.3848L26.9129 70.3494C27.2984 71.7533 26.9653 72.3695 25.6447 72.7312C24.4693 73.0548 24.0577 72.9215 23.6675 72.1102L23.6389 72.1173C23.7865 72.7978 23.47 73.2594 22.7324 73.4521L21.2929 73.8495L21.0335 72.9049L22.2732 72.5646C23.0036 72.3838 23.2178 71.9793 22.987 71.2536L22.4754 69.3906L20.2365 70.0068L19.9795 69.0717L26.0992 67.3871L26.0968 67.3848ZM23.7817 70.9847C23.8959 71.3987 24.0244 71.6486 24.2005 71.7866C24.4313 71.9793 24.6502 71.9888 25.1831 71.8413C25.8993 71.6438 26.092 71.5225 26.1658 71.2155C26.2015 71.0585 26.1753 70.8182 26.092 70.516L25.5496 68.5435L23.2844 69.1669L23.7841 70.9847H23.7817Z" fill="white"/>
<path d="M26.4056 76.5784L27.8189 79.3289L27.1503 79.6715L25.737 76.921L23.9001 77.8632L25.3872 80.7589L24.6591 81.1325L22.7295 77.3731L28.3757 74.4727L30.2982 78.2154L29.5701 78.5889L28.0926 75.7099L26.408 76.576L26.4056 76.5784Z" fill="white"/>
<path d="M28.3402 84.2998L27.0744 84.7661L26.4248 83.9691L32.7467 81.6777L33.6414 82.777L30.139 88.5279L29.5013 87.7451L30.208 86.5935L28.3378 84.2998H28.3402ZM32.6159 82.7199L29.073 84.0238L30.6363 85.9415L32.6159 82.7199Z" fill="white"/>
<path d="M33.8888 90.7654L36.2896 92.7474L35.7328 93.4231L32.585 90.8225L36.6275 85.9258L37.377 86.5444L33.8912 90.7654H33.8888Z" fill="white"/>
<path d="M44.9956 94.5357L47.8627 95.6968L47.5796 96.394L44.7125 95.2328L43.9368 97.1458L46.9538 98.3664L46.6469 99.1255L42.7305 97.5384L45.1122 91.6543L49.012 93.2342L48.705 93.9932L45.707 92.7774L44.9956 94.5333V94.5357Z" fill="white"/>
<path d="M54.5488 96.3267C54.6273 95.9056 54.6273 95.7509 54.5607 95.5844C54.4536 95.3226 54.1967 95.1965 53.4472 95.0585C52.1552 94.8182 51.8839 94.9229 51.7317 95.7462C51.6389 96.2411 51.715 96.5076 52.0053 96.6693C52.1718 96.7669 52.2527 96.7931 53.2187 97.0215C54.3132 97.2832 54.6464 97.4141 54.9057 97.683C55.2031 98.0089 55.2626 98.4182 55.1246 99.1653C54.9557 100.074 54.7154 100.483 54.2538 100.669C53.8469 100.826 53.3853 100.807 52.1885 100.586C51.2058 100.403 50.8703 100.281 50.5277 99.9862C50.3207 99.803 50.1708 99.4651 50.1637 99.1344C50.1589 98.8441 50.1827 98.6632 50.2707 98.1469L51.2058 98.3206C51.1011 98.8821 51.1035 99.0273 51.1796 99.2438C51.2867 99.5555 51.4485 99.6221 52.4954 99.8172C53.816 100.062 53.9968 99.9695 54.18 98.9773C54.268 98.5086 54.2038 98.2754 53.9611 98.1231C53.8564 98.0581 53.4464 97.9368 52.731 97.7591C51.6079 97.4926 51.4842 97.4403 51.1939 97.2309C50.7442 96.8954 50.6181 96.4171 50.7728 95.5939C50.906 94.8729 51.1416 94.4423 51.5151 94.2614C51.941 94.0497 52.424 94.0521 53.54 94.2614C54.7748 94.4922 55.2364 94.7135 55.4577 95.1894C55.5862 95.4844 55.6076 95.8366 55.5196 96.3148L55.4839 96.5028L54.5488 96.3291V96.3267Z" fill="white"/>
<path d="M60.9137 101.229L59.9429 101.236L59.9072 95.7638L57.9657 95.7757L57.9609 94.9001L62.8434 94.8691L62.8481 95.7543H60.878L60.9137 101.229Z" fill="white"/>
<path d="M66.1502 99.4827L65.9717 100.82L64.9629 101.022L65.8885 94.3624L67.278 94.084L70.7281 99.8658L69.7383 100.063L69.0482 98.8998L66.1454 99.4827H66.1502ZM66.7498 94.9643L66.2477 98.7047L68.6747 98.2193L66.7498 94.9643Z" fill="white"/>
<path d="M75.4823 98.1065L74.5829 98.4706L72.5295 93.3978L70.7307 94.1259L70.4023 93.3145L74.9279 91.4824L75.261 92.3033L73.4313 93.0338L75.4846 98.1065H75.4823Z" fill="white"/>
<path d="M79.1462 92.1714L81.7373 90.4821L82.149 91.1126L79.5579 92.8019L80.6857 94.5317L83.4124 92.752L83.8597 93.4372L80.3216 95.7452L76.8525 90.4274L80.3764 88.1289L80.8237 88.8142L78.1136 90.582L79.1486 92.169L79.1462 92.1714Z" fill="white"/>
<path d="M90.5911 87.1375L89.9487 87.8656L85.1924 83.6636L85.8348 82.9355L90.5911 87.1375Z" fill="white"/>
<path d="M95.9774 79.3609L95.128 80.748L90.6524 80.6219C90.4145 80.61 90.1599 80.5886 89.2724 80.5244L88.8275 80.4863L88.8084 80.5172L89.0892 80.679L89.3771 80.8456C89.3985 80.8456 89.6817 81.0217 89.9505 81.1858L93.5219 83.3725L93.0199 84.1933L87.6045 80.8789L88.4492 79.4989L92.456 79.6416C92.9033 79.6583 93.1412 79.6702 94.1882 79.7297L94.7568 79.7654L94.7711 79.7416L94.4951 79.5726L94.2143 79.4132C94.1691 79.3966 93.9003 79.2324 93.648 79.0777L90.0505 76.8768L90.5573 76.0488L95.9727 79.3633L95.9774 79.3609Z" fill="white"/>
<path d="M97.1433 70.2312L97.3503 70.3002C98.1997 70.5833 98.4972 70.7737 98.6946 71.1401C98.8279 71.3757 98.8707 71.7516 98.8112 72.1133C98.7851 72.3441 98.6399 72.839 98.4377 73.4433C98.1355 74.3451 97.9642 74.6806 97.6549 74.978C97.2242 75.3968 96.7031 75.4824 95.8608 75.273C95.4873 75.1874 94.7782 74.9709 94.181 74.7734C92.7724 74.3023 92.4155 74.0834 92.1657 73.5385C91.8945 72.9675 91.9444 72.4916 92.4346 71.0188C92.713 70.1884 92.8533 69.9147 93.1484 69.6625C93.4505 69.3913 93.9074 69.3151 94.4094 69.4317C94.6045 69.4769 94.7164 69.5031 95.0994 69.6221L94.7925 70.5429C93.7123 70.2027 93.5648 70.2835 93.2007 71.3757C92.6606 72.9912 92.7439 73.2197 94.0097 73.6432C95.9132 74.2785 96.3391 74.3903 96.696 74.3713C97.1481 74.3427 97.336 74.1048 97.6501 73.1649C98.1117 71.7849 98.0475 71.5517 97.1266 71.2448C97.0457 71.2186 96.9744 71.1948 96.834 71.1568L97.1409 70.236L97.1433 70.2312Z" fill="white"/>
<path d="M99.8296 67.7247L99.6631 68.6145L98.6709 68.4266L98.8375 67.5391L99.8296 67.727V67.7247Z" fill="white"/>
<path d="M38.4521 58.9165H40.308V59.3686H38.4521V60.6083H40.4055V61.0984H37.8691V57.2891H40.3936V57.7792H38.4521V58.9165Z" fill="black"/>
<path d="M43.4535 58.3651C43.4535 58.1081 43.4369 58.0177 43.3798 57.9249C43.2894 57.7821 43.1228 57.7369 42.666 57.7369C41.8784 57.7369 41.7285 57.8273 41.7285 58.3318C41.7285 58.6339 41.8023 58.7838 41.9902 58.8457C42.0997 58.8861 42.1496 58.8909 42.7445 58.9195C43.4178 58.9528 43.6296 58.9932 43.8128 59.1241C44.0246 59.2835 44.1031 59.519 44.1031 59.9759C44.1031 60.5303 44.0055 60.7991 43.7557 60.9586C43.532 61.0966 43.2584 61.1346 42.528 61.1346C41.9284 61.1346 41.7166 61.1013 41.4834 60.9633C41.3407 60.8777 41.2146 60.6945 41.1741 60.5017C41.1408 60.3304 41.1337 60.221 41.1289 59.9069H41.6999C41.6999 60.2495 41.7166 60.3352 41.7856 60.4541C41.8832 60.6254 41.9855 60.6492 42.6255 60.6492C43.4297 60.6492 43.5273 60.5755 43.5273 59.9687C43.5273 59.6832 43.4654 59.5524 43.3036 59.4881C43.2354 59.4612 42.98 59.4342 42.5375 59.4072C41.8475 59.3739 41.7666 59.3549 41.5715 59.2645C41.2693 59.1169 41.1432 58.8481 41.1432 58.346C41.1432 57.9059 41.2336 57.6275 41.4335 57.4776C41.6619 57.3063 41.9474 57.2539 42.6279 57.2539C43.3821 57.2539 43.6796 57.3348 43.8604 57.5918C43.9699 57.7512 44.0198 57.9582 44.0198 58.2485V58.3627H43.4488L43.4535 58.3651Z" fill="black"/>
<path d="M46.4519 61.0984H45.869V57.8149H44.7031V57.2891H47.6321V57.8197L46.4496 57.8149V61.0984H46.4519Z" fill="black"/>
<path d="M48.3881 57.2895H50.2036C50.7413 57.2895 51.0601 57.387 51.2767 57.6202C51.5384 57.901 51.624 58.2317 51.624 58.9455C51.624 59.9401 51.5907 60.2542 51.448 60.5206C51.3052 60.8062 51.0934 60.9656 50.7675 61.0393C50.6081 61.0727 50.4129 61.0964 50.2702 61.0964H48.3857V57.2871L48.3881 57.2895ZM50.1013 60.5968C50.4843 60.5968 50.7294 60.523 50.8484 60.3636C50.9959 60.1685 51.0363 59.9234 51.0363 59.2263C51.0363 58.4435 51.003 58.227 50.8603 58.0318C50.7413 57.8653 50.5414 57.7987 50.1631 57.7987H48.9687V60.5968H50.0989H50.1013Z" fill="black"/>
<path d="M69.2548 61.0984H68.6671V57.7792L67.6845 58.8023L67.3252 58.4359L68.472 57.2891H69.2548V61.0984Z" fill="black"/>
<path d="M71.5916 60.0706C71.5916 60.2991 71.6082 60.3895 71.6653 60.4823C71.751 60.6131 71.8699 60.6369 72.46 60.6369C73.2642 60.6369 73.3332 60.5751 73.3332 59.8208V59.2545H73.3213C73.15 59.5567 72.9906 59.6138 72.2982 59.6138C71.3155 59.6138 71.0467 59.3735 71.0467 58.4955C71.0467 57.4962 71.3203 57.2559 72.4624 57.2559C73.3071 57.2559 73.6211 57.3748 73.8043 57.7698C73.9067 57.9982 73.9304 58.2718 73.9304 59.2831C73.9304 60.2943 73.9019 60.4989 73.7544 60.7345C73.5593 61.0438 73.2523 61.1342 72.4362 61.1342C71.7629 61.1342 71.4988 61.0819 71.2822 60.9177C71.1109 60.7868 71.0205 60.5346 71.0205 60.2158C71.0205 60.192 71.0205 60.1301 71.0253 60.073H71.5916V60.0706ZM71.6201 58.4146C71.6201 59.0546 71.7058 59.1284 72.4362 59.1284C72.9668 59.1284 73.1833 59.0761 73.269 58.9404C73.3213 58.8548 73.338 58.7525 73.338 58.5241C73.338 57.8269 73.2476 57.7484 72.4362 57.7484C71.7224 57.7484 71.6201 57.834 71.6201 58.417V58.4146Z" fill="black"/>
<path d="M77.1804 58.3123C77.1852 58.2671 77.1852 58.2219 77.1852 58.2028C77.1852 57.8317 77.0591 57.7508 76.4761 57.7508C75.6434 57.7508 75.5292 57.8317 75.5292 58.4122V59.1213H75.5411C75.7243 58.8239 75.8718 58.7667 76.5237 58.7667C77.0948 58.7667 77.3803 58.8286 77.5683 59.0071C77.7443 59.1736 77.8252 59.452 77.8252 59.8922C77.8252 60.4347 77.711 60.7773 77.4707 60.9439C77.2756 61.0866 77.0139 61.1318 76.4095 61.1318C75.6838 61.1318 75.3935 61.0509 75.1699 60.7892C75.0224 60.6179 74.9652 60.4513 74.9415 60.0706C74.9383 59.9977 74.9327 59.7256 74.9248 59.2545C74.9407 58.3821 74.9882 57.8721 75.0676 57.7246C75.2555 57.382 75.6053 57.2559 76.3524 57.2559C77.0377 57.2559 77.3684 57.3296 77.5516 57.5295C77.6944 57.677 77.7634 57.8959 77.7634 58.1909V58.3099H77.1804V58.3123ZM75.5982 59.4211C75.5292 59.5067 75.5077 59.6209 75.5077 59.8612C75.5077 60.5513 75.6101 60.6441 76.3929 60.6441C77.1757 60.6441 77.2542 60.5703 77.2542 59.954C77.2542 59.6685 77.2256 59.4972 77.1638 59.4068C77.0829 59.3045 76.8545 59.2593 76.3643 59.2593C75.9241 59.2593 75.7028 59.3116 75.5982 59.4258V59.4211Z" fill="black"/>
<path d="M79.3669 60.0706C79.3669 60.2991 79.3836 60.3895 79.4407 60.4823C79.5264 60.6131 79.6453 60.6369 80.2354 60.6369C81.0396 60.6369 81.1086 60.5751 81.1086 59.8208V59.2545H81.0967C80.9254 59.5567 80.766 59.6138 80.0736 59.6138C79.0909 59.6138 78.8221 59.3735 78.8221 58.4955C78.8221 57.4962 79.0957 57.2559 80.2378 57.2559C81.0825 57.2559 81.3965 57.3748 81.5797 57.7698C81.682 57.9982 81.7058 58.2718 81.7058 59.2831C81.7058 60.2943 81.6773 60.4989 81.5298 60.7345C81.3347 61.0438 81.0277 61.1342 80.2116 61.1342C79.5383 61.1342 79.2741 61.0819 79.0576 60.9177C78.8863 60.7868 78.7959 60.5346 78.7959 60.2158C78.7959 60.192 78.7959 60.1301 78.8007 60.073H79.3669V60.0706ZM79.3955 58.4146C79.3955 59.0546 79.4811 59.1284 80.2116 59.1284C80.7422 59.1284 80.9587 59.0761 81.0444 58.9404C81.0967 58.8548 81.1134 58.7525 81.1134 58.5241C81.1134 57.8269 81.023 57.7484 80.2116 57.7484C79.4978 57.7484 79.3955 57.834 79.3955 58.417V58.4146Z" fill="black"/>
</svg>
