<svg width="126" height="125" viewBox="0 0 126 125" fill="none" xmlns="http://www.w3.org/2000/svg">
<g id="Logo Animation/Variant3">
<g id="Group 2243">
<g id="Layer_1">
<g id="Group">
<path id="Vector" d="M64.3443 27.5961L64.4704 27.9292L76.0221 23.4941L64.9986 29.1118L65.1604 29.4306L76.1839 23.8129L65.8076 30.5513L66.0027 30.8511L76.3766 24.1127L66.7617 31.898L66.9877 32.1764L76.6027 24.3911L67.8538 33.1376L68.106 33.3898L76.8549 24.6433L69.0696 34.2583L69.3456 34.482L77.1333 24.867L70.3926 35.2434L70.6924 35.4385L77.4307 25.0621L71.8154 36.0856L72.1319 36.2474L77.7495 25.2239L73.3144 36.7733L73.6475 36.9018L78.0826 25.3524L74.88 37.3015L75.225 37.3943L78.4276 25.4452L76.4908 37.6631L76.843 37.7179L78.7798 25.4999L78.1326 37.8535L78.4895 37.8725L79.1367 25.5189L79.7839 37.8725L80.1408 37.8535L79.4912 25.4999L81.428 37.7179L81.7801 37.6631L79.8457 25.4452L83.046 37.3943L83.391 37.3015L80.1907 25.3524L84.6235 36.9018L84.9566 36.7733L80.5238 25.2239L86.1391 36.2474L86.4579 36.0856L80.8403 25.0621L87.5786 35.4385L87.8784 35.2434L81.1401 24.867L88.9253 34.482L89.2037 34.2583L81.4185 24.6433L90.165 33.3898L90.4172 33.1376L81.6707 24.3911L91.2833 32.1764L91.5093 31.898L81.8943 24.1127L92.2707 30.8511L92.4658 30.5513L82.0871 23.8129L93.113 29.4306L93.2748 29.1118L82.2489 23.4941L93.8006 27.9292L93.9291 27.5961L82.3797 23.1634L94.3288 26.3636L94.4216 26.0186L82.4725 22.8184L94.6905 24.7528L94.7452 24.4006L82.5273 22.4662L94.8808 23.1134L94.8999 22.7565L82.5463 22.1093L94.8999 21.4621L94.8808 21.1052L82.5273 21.7524L94.7452 19.818L94.6905 19.4635L82.4725 21.4003L94.4216 18.1977L94.3288 17.8527L82.3797 21.0553L93.9291 16.6202L93.8006 16.2871L82.2489 20.7222L93.2748 15.1045L93.113 14.7881L82.0895 20.4033L92.4658 13.665L92.2707 13.3676L81.8943 20.1035L91.5093 12.3183L91.2833 12.0423L81.6707 19.8275L90.4172 11.0787L90.165 10.8264L81.4185 19.5753L89.2037 9.96036L88.9253 9.7367L81.1401 19.3517L87.8784 8.97531L87.5786 8.78021L80.8403 19.1566L86.4579 8.13302L86.1391 7.97123L80.5238 18.9924L84.9566 7.44301L84.6235 7.3169L80.1907 18.8663L83.391 6.91479L83.046 6.82438L79.8457 18.7735L81.7801 6.55313L81.428 6.49841L79.4912 18.7188L80.1408 6.36278L79.7839 6.34375L79.1367 18.6997L78.4895 6.34375L78.1326 6.36278L78.7798 18.7188L76.843 6.49841L76.4908 6.55313L78.4276 18.7735L75.225 6.82438L74.88 6.91479L78.0826 18.8663L73.6475 7.3169L73.3144 7.44301L77.7495 18.9924L72.1319 7.97123L71.8154 8.13302L77.4307 19.1566L70.6924 8.78021L70.3926 8.97531L77.1333 19.3517L69.3456 9.7367L69.0696 9.96036L76.8549 19.5753L68.106 10.8264L67.8538 11.0787L76.6027 19.8275L66.9877 12.0423L66.7617 12.3183L76.3766 20.1035L66.0027 13.3676L65.8076 13.665L76.1839 20.4033L65.1604 14.7881L64.9986 15.1045L76.0221 20.7222L64.4704 16.2871L64.3443 16.6202L75.8936 21.0553L63.9421 17.8527L63.8517 18.1977L75.7984 21.4003L63.5805 19.4635L63.5258 19.818L75.7437 21.7524L63.3901 21.1052L63.3711 21.4621L75.7271 22.1093L63.3711 22.7565L63.3901 23.1134L75.7437 22.4662L63.5258 24.4006L63.5805 24.7528L75.7984 22.8184L63.8517 26.0186L63.9421 26.3636L75.8936 23.1634L64.3443 27.5961Z" fill="#233063"/>
<path id="Vector_2" d="M30.1321 23.9471L30.1701 24.3017L42.4737 23.0097L30.3724 25.5817L30.4461 25.9291L42.5499 23.3571L30.7816 27.1807L30.8911 27.5209L42.657 23.6973L31.355 28.7296L31.5002 29.0556L42.8021 24.0233L32.0903 30.2096L32.2687 30.5189L42.9829 24.3326L32.973 31.6039L33.1824 31.8942L43.1923 24.6205L33.9985 32.9006L34.2364 33.1647L43.4302 24.887L35.1525 34.0808L35.4166 34.3187L43.6967 25.1249L36.4231 35.1348L36.7133 35.3442L43.9846 25.3343L37.7983 36.0485L38.1076 36.227L44.2939 25.5127L39.2616 36.8147L39.5876 36.9598L44.6199 25.6579L40.7963 37.4238L41.1365 37.5356L44.9602 25.7673L42.3857 37.8711L42.7355 37.9449L45.3076 25.8435L44.0156 38.1471L44.3701 38.1852L45.6621 25.8815V38.2518H46.019V25.8815L47.3133 38.1852L47.6679 38.1471L46.3759 25.8435L48.948 37.9449L49.2953 37.8711L46.7233 25.7673L50.5469 37.5356L50.8871 37.4238L47.0635 25.6579L52.0958 36.9598L52.4218 36.8147L47.3895 25.5127L53.5758 36.227L53.8851 36.0485L47.6988 25.3343L54.9701 35.3442L55.2604 35.1348L47.9867 25.1249L56.2645 34.3187L56.5309 34.0808L48.2532 24.887L57.447 33.1647L57.6849 32.9006L48.4911 24.6205L58.5011 31.8942L58.7104 31.6039L48.7005 24.3326L59.4147 30.5189L59.5932 30.2096L48.8813 24.0233L60.1809 29.0556L60.326 28.7296L49.0241 23.6973L60.79 27.5209L60.9018 27.1807L49.1335 23.3571L61.2373 25.9291L61.3111 25.5817L49.2097 23.0097L61.5133 24.3017L61.5514 23.9471L49.2478 22.6528H61.618V22.2959H49.2478L61.5514 21.0039L61.5133 20.6494L49.2097 21.9413L61.3111 19.3693L61.2373 19.0219L49.1335 21.594L60.9018 17.7703L60.79 17.4301L49.0241 21.2537L60.326 16.2214L60.1809 15.8954L48.879 20.9277L59.5932 14.7414L59.4147 14.4321L48.7005 20.6184L58.7104 13.3471L58.5011 13.0568L48.4911 20.3305L57.6849 12.0504L57.447 11.7863L48.2532 20.064L56.5309 10.8702L56.2645 10.6323L47.9867 19.8261L55.2604 9.81617L54.9701 9.60679L47.6988 19.6167L53.8851 8.9025L53.5758 8.72405L47.3895 19.4383L52.4218 8.13635L52.0958 7.99121L47.0635 19.2931L50.8871 7.52485L50.5469 7.4154L46.7233 19.1813L49.2953 7.07991L48.948 7.00616L46.3759 19.1075L47.6679 6.80391L47.3133 6.76584L46.019 19.0695V6.69922H45.6621V19.0695L44.3701 6.76584L44.0156 6.80391L45.3076 19.1075L42.7355 7.00616L42.3857 7.07991L44.9602 19.1813L41.1365 7.4154L40.7963 7.52485L44.6199 19.2931L39.5876 7.99121L39.2616 8.13635L44.2939 19.4383L38.1076 8.72405L37.7983 8.9025L43.9846 19.6167L36.7133 9.60679L36.4231 9.81617L43.6967 19.8261L35.4166 10.6323L35.1525 10.8702L43.4302 20.064L34.2364 11.7863L33.9985 12.0504L43.1923 20.3305L33.1824 13.0568L32.973 13.3471L42.9829 20.6184L32.2687 14.4321L32.0903 14.7414L42.8021 20.9277L31.5002 15.8954L31.355 16.2214L42.657 21.2537L30.8911 17.4301L30.7816 17.7703L42.5499 21.594L30.4461 19.0219L30.3724 19.3693L42.4737 21.9413L30.1701 20.6494L30.1321 21.0039L42.4357 22.2959H30.0654V22.6528H42.4357L30.1321 23.9471Z" fill="#233063"/>
<path id="Vector_3" d="M7.27122 50.189L7.36401 50.534L19.3155 47.3314L7.76374 51.7641L7.89223 52.0972L19.4416 47.6645L8.41807 53.2797L8.57986 53.5986L19.6058 47.9809L9.22942 54.7192L9.42215 55.019L19.7985 48.2807L10.1835 56.0683L10.4096 56.3443L20.0222 48.5591L11.2757 57.308L11.5279 57.5602L20.2768 48.8113L12.4891 58.4263L12.7675 58.6499L20.5528 49.035L13.8144 59.4113L14.1142 59.6064L20.8526 49.2301L15.2349 60.2536L15.5537 60.4154L21.169 49.3919L16.7363 60.9412L17.0694 61.0697L21.5021 49.5204L18.3019 61.4695L18.6469 61.5623L21.8471 49.6132L19.9127 61.8311L20.2649 61.8882L22.2016 49.6679L21.5521 62.0238L21.909 62.0405L22.5562 49.6869L23.2034 62.0405L23.5603 62.0238L22.9131 49.6679L24.8499 61.8882L25.202 61.8311L23.2652 49.6132L26.4678 61.5623L26.8128 61.4695L23.6102 49.5204L28.0453 61.0697L28.3784 60.9412L23.9433 49.3919L29.561 60.4154L29.8774 60.2536L24.2622 49.2301L31.0005 59.6064L31.3003 59.4113L24.562 49.035L32.3472 58.6499L32.6232 58.4263L24.838 48.8113L33.5868 57.5602L33.8391 57.308L25.0902 48.5591L34.7051 56.3443L34.9312 56.0683L25.3162 48.2807L35.6902 55.019L35.8853 54.7192L25.5089 47.9809L36.5325 53.5986L36.6943 53.2797L25.6707 47.6645L37.2225 52.0972L37.351 51.7641L25.7992 47.3314L37.7507 50.534L37.8435 50.189L25.8944 46.9863L38.1124 48.9208L38.1671 48.5686L25.9491 46.6342L38.3027 47.2814L38.3218 46.9245L25.9682 46.2773L38.3218 45.6301L38.3027 45.2732L25.9491 45.9204L38.1671 43.986L38.1124 43.6338L25.8944 45.5683L37.8435 42.3656L37.7507 42.0206L25.7992 45.2232L37.351 40.7905L37.2225 40.4574L25.6707 44.8901L36.6943 39.2749L36.5325 38.956L25.5089 44.5737L35.8853 37.8354L35.6902 37.5356L25.3162 44.2739L34.9312 36.4863L34.7051 36.2103L25.0902 43.9955L33.8391 35.2466L33.5868 34.9944L24.838 43.7433L32.6232 34.1283L32.3472 33.9047L24.562 43.5196L31.3003 33.1433L31.0005 32.9482L24.2622 43.3245L29.8774 32.301L29.561 32.1392L23.9433 43.1627L28.3784 31.6134L28.0453 31.4849L23.6102 43.0342L26.8128 31.0851L26.4678 30.9923L23.2652 42.9414L25.202 30.7235L24.8499 30.6664L22.9131 42.8867L23.5603 30.5308L23.2034 30.5117L22.5562 42.8677L21.909 30.5117L21.5521 30.5308L22.2016 42.8867L20.2649 30.6664L19.9127 30.7235L21.8471 42.9414L18.6469 30.9923L18.3019 31.0851L21.5021 43.0342L17.0694 31.4849L16.7363 31.6134L21.169 43.1627L15.5537 32.1392L15.2349 32.301L20.8526 43.3245L14.1142 32.9482L13.8144 33.1433L20.5528 43.5196L12.7675 33.9047L12.4891 34.1283L20.2768 43.7433L11.5279 34.9944L11.2757 35.2466L20.0222 43.9955L10.4096 36.2103L10.1835 36.4863L19.7985 44.2739L9.42215 37.5356L9.22942 37.8354L19.6058 44.5737L8.57986 38.956L8.41807 39.2749L19.444 44.8901L7.89223 40.4574L7.76374 40.7905L19.3131 45.2232L7.36401 42.0206L7.27122 42.3656L19.2203 45.5683L7.00235 43.6338L6.94763 43.986L19.1656 45.9204L6.812 45.2732L6.79297 45.6301L19.1466 46.2773L6.79297 46.9245L6.812 47.2814L19.1656 46.6342L6.94763 48.5686L7.00235 48.9208L19.2203 46.9863L7.27122 50.189Z" fill="#233063"/>
<path id="Vector_4" d="M30.9642 93.1462L24.7803 82.4319L32.0516 92.4419L32.3395 92.2325L25.0682 82.2226L33.3459 91.4164L33.6124 91.1784L25.3323 81.9846L34.5285 90.2624L34.7664 89.9959L25.5726 81.7181L35.5802 88.9894L35.7919 88.7015L25.782 81.4302L36.4962 87.6166L36.6747 87.3072L25.9604 81.1209L37.2624 86.1533L37.4075 85.8273L26.1056 80.795L37.8715 84.6186L37.9809 84.2783L26.215 80.4547L38.3164 83.0268L38.3925 82.6794L26.2912 80.1049L38.5948 81.3993L38.6305 81.0448L26.3269 79.7504H38.6995V79.3935H26.3292L38.6305 78.1015L38.5948 77.747L26.2912 79.039L38.3925 76.4669L38.3164 76.1172L26.215 78.6892L37.9809 74.868L37.8715 74.5277L26.1056 78.3514L37.4075 73.319L37.2624 72.9931L25.9604 78.0254L36.6747 71.8391L36.4962 71.5298L25.782 77.7161L35.7919 70.4448L35.5802 70.1545L25.5726 77.4258L34.7664 69.148L34.5285 68.8839L25.3323 77.1617L33.6124 67.9679L33.3459 67.7276L25.0682 76.9238L32.3395 66.9138L32.0516 66.7044L24.7803 76.7144L30.9642 65.9978L30.6573 65.8193L24.471 76.5359L29.5033 65.2316L29.1773 65.0865L24.145 76.3908L27.9662 64.6225L27.6284 64.5131L23.8047 76.279L26.3768 64.1776L26.0271 64.1038L23.455 76.2052L24.7494 63.9016L24.3948 63.8635L23.1005 76.1671V63.7969H22.7436V76.1671L21.4516 63.8635L21.0947 63.9016L22.389 76.2052L19.817 64.1038L19.4672 64.1776L22.0393 76.279L18.218 64.5131L17.8778 64.6225L21.7014 76.3908L16.6691 65.0865L16.3431 65.2316L21.3754 76.5359L15.1891 65.8193L14.8798 65.9978L21.0661 76.7144L13.7924 66.7044L13.5045 66.9138L20.7758 76.9238L12.4981 67.7276L12.234 67.9679L20.5117 77.1617L11.3179 68.8839L11.0776 69.148L20.2714 77.4258L10.2639 70.1545L10.0545 70.4448L20.062 77.7161L9.34781 71.5298L9.16936 71.8391L19.8836 78.0254L8.58166 72.9931L8.43652 73.319L19.7384 78.3514L7.97255 74.5277L7.8631 74.868L19.629 78.6892L7.52761 76.1172L7.45385 76.4669L19.5552 79.039L7.2516 77.747L7.21353 78.1015L19.5172 79.3935H7.14453V79.7504H19.5172L7.21353 81.0448L7.2516 81.3993L19.5552 80.1049L7.45385 82.6794L7.52761 83.0268L19.629 80.4547L7.8631 84.2783L7.97255 84.6186L19.7384 80.795L8.43652 85.8273L8.58166 86.1533L19.8836 81.1209L9.16936 87.3072L9.34781 87.6166L20.062 81.4302L10.0545 88.7015L10.2639 88.9894L20.2714 81.7181L11.0776 89.9959L11.3179 90.2624L20.5117 81.9846L12.234 91.1784L12.4981 91.4164L20.7758 82.2226L13.5045 92.2325L13.7924 92.4419L21.0661 82.4319L14.8798 93.1462L15.1891 93.3246L21.3754 82.6104L16.3431 93.9123L16.6691 94.0575L21.7014 82.7555L17.8778 94.5214L18.218 94.6333L22.0393 82.865L19.4672 94.9664L19.817 95.0425L22.389 82.9411L21.0947 95.2448L21.4516 95.2804L22.7436 82.9768V95.3494H23.1005V82.9768L24.3948 95.2804L24.7494 95.2448L23.455 82.9411L26.0271 95.0425L26.3768 94.9664L23.8047 82.865L27.6284 94.6333L27.9662 94.5214L24.145 82.7555L29.1773 94.0575L29.5033 93.9123L24.471 82.6104L30.6573 93.3246L30.9642 93.1462Z" fill="#233063"/>
<path id="Vector_5" d="M62.4697 101.851L50.1161 102.498L62.3341 100.564L62.2794 100.212L50.0614 102.146L62.0105 98.9457L61.9177 98.6007L49.9686 101.801L61.518 97.3682L61.3895 97.0351L49.8377 101.47L60.8636 95.8526L60.7018 95.5337L49.6759 101.151L60.0523 94.4131L59.8596 94.1133L49.4832 100.852L59.0982 93.0664L58.8721 92.788L49.2595 100.573L58.006 91.8267L57.7538 91.5745L49.005 100.321L56.7926 90.706L56.5142 90.4824L48.729 100.097L55.4673 89.721L55.1675 89.5283L48.4292 99.9022L54.0468 88.8787L53.728 88.7169L48.1127 99.7404L52.5454 88.1911L52.2123 88.0626L47.7796 99.6119L50.9798 87.6628L50.6348 87.57L47.4346 99.5192L49.369 87.3012L49.0169 87.2465L47.0801 99.4644L47.7296 87.1108L47.3727 87.0918L46.7255 99.4454L46.0784 87.0918L45.7215 87.1108L46.3686 99.4644L44.4318 87.2465L44.0797 87.3012L46.0165 99.5192L42.8139 87.57L42.4689 87.6628L45.6715 99.6119L41.2364 88.0626L40.9033 88.1911L45.3384 99.7404L39.7207 88.7169L39.4043 88.8787L45.0195 99.9022L38.2812 89.5283L37.9814 89.721L44.7221 100.097L36.9345 90.4824L36.6585 90.706L44.4437 100.321L35.6949 91.5745L35.4427 91.8267L44.1915 100.573L34.5766 92.788L34.3505 93.0664L43.9655 100.852L33.5915 94.1133L33.3964 94.4131L43.7728 101.151L32.7492 95.5337L32.5874 95.8526L43.611 101.47L32.0592 97.0351L31.9331 97.3682L43.4825 101.801L31.531 98.6007L31.4382 98.9457L43.3873 102.146L31.1693 100.212L31.1146 100.564L43.3326 102.498L30.979 101.851L30.96 102.208L43.3159 102.855L30.96 103.502L30.979 103.859L43.3326 103.212L31.1146 105.146L31.1693 105.501L43.3873 103.564L31.4382 106.767L31.531 107.112L43.4825 103.909L31.9331 108.344L32.0592 108.677L43.611 104.242L32.5874 109.86L32.7492 110.176L43.7728 104.561L33.3964 111.299L33.5915 111.597L43.9655 104.861L34.3505 112.646L34.5766 112.922L44.1915 105.137L35.4427 113.886L35.6949 114.138L44.4437 105.389L36.6585 115.004L36.9345 115.228L44.7221 105.613L37.9814 115.989L38.2812 116.184L45.0195 105.81L39.4043 116.831L39.7207 116.993L45.3384 105.972L40.9033 117.521L41.2364 117.647L45.6715 106.098L42.4689 118.05L42.8139 118.14L46.0165 106.191L44.0797 118.411L44.4318 118.466L46.3686 106.246L45.7215 118.602L46.0784 118.621L46.7255 106.265L47.3727 118.621L47.7296 118.602L47.0801 106.246L49.0169 118.466L49.369 118.411L47.4346 106.191L50.6348 118.14L50.9798 118.05L47.7796 106.098L52.2123 117.647L52.5454 117.521L48.1127 105.972L53.728 116.993L54.0468 116.831L48.4292 105.808L55.1675 116.184L55.4673 115.989L48.729 105.613L56.5142 115.228L56.7926 115.004L49.005 105.389L57.7538 114.138L58.006 113.886L49.2595 105.137L58.8721 112.922L59.0982 112.646L49.4832 104.861L59.8596 111.597L60.0523 111.299L49.6759 104.561L60.7018 110.176L60.8636 109.86L49.8401 104.242L61.3895 108.677L61.518 108.344L49.9686 103.909L61.9177 107.112L62.0105 106.767L50.0614 103.564L62.2794 105.501L62.3341 105.146L50.1161 103.212L62.4697 103.859L62.4887 103.502L50.1352 102.855L62.4887 102.208L62.4697 101.851Z" fill="#233063"/>
<path id="Vector_6" d="M95.7281 101.018L95.6901 100.663L83.3864 101.955L95.4878 99.3829L95.4141 99.0356L83.3127 101.608L95.0786 97.784L94.9691 97.4438L83.2032 101.267L94.5051 96.2351L94.36 95.9091L83.0581 100.941L93.7723 94.7551L93.5939 94.4458L82.8796 100.632L92.8872 93.3608L92.6778 93.0705L82.6703 100.344L91.8641 92.0664L91.6238 91.7999L82.4299 100.078L90.7077 90.8839L90.4436 90.646L82.1658 99.8398L89.4371 89.8298L89.1492 89.6205L81.8756 99.6304L88.0619 88.9162L87.7526 88.7377L81.5662 99.4519L86.5986 88.15L86.2726 88.0049L81.2403 99.3068L85.0639 87.5409L84.726 87.4291L80.9024 99.1973L83.4745 87.0936L83.1247 87.0198L80.5526 99.1212L81.847 86.8176L81.4901 86.7795L80.1981 99.0831V86.7129H79.8412V99.0831L78.5468 86.7795L78.1923 86.8176L79.4867 99.1212L76.9146 87.0198L76.5648 87.0936L79.1369 99.1973L75.3133 87.4291L74.9754 87.5409L78.7967 99.3068L73.7643 88.0049L73.4384 88.15L78.4731 99.4519L72.2868 88.7377L71.9775 88.9162L78.1638 99.6304L70.8901 89.6205L70.6022 89.8298L77.8735 99.8398L69.5957 90.646L69.3292 90.8839L77.6094 100.078L68.4156 91.7999L68.1753 92.0664L77.3691 100.344L67.3615 93.0705L67.1521 93.3608L77.1597 100.632L66.4455 94.4458L66.267 94.7551L76.9812 100.941L65.6793 95.9091L65.5342 96.2351L76.8361 101.267L65.0702 97.4438L64.9607 97.784L76.7266 101.608L64.6253 99.0356L64.5515 99.3829L76.6505 101.955L64.3469 100.663L64.3112 101.018L76.6148 102.312H64.2422V102.669H76.6148L64.3112 103.961L64.3469 104.315L76.6505 103.023L64.5515 105.595L64.6253 105.943L76.7266 103.371L64.9607 107.194L65.0702 107.535L76.8361 103.711L65.5342 108.743L65.6793 109.069L76.9812 104.037L66.267 110.223L66.4455 110.533L77.1597 104.346L67.1521 111.618L67.3615 111.908L77.3691 104.634L68.1753 112.914L68.4156 113.178L77.6094 104.901L69.3292 114.094L69.5957 114.332L77.8735 105.139L70.6022 115.149L70.8901 115.358L78.1638 105.348L71.9775 116.062L72.2868 116.241L78.4731 105.526L73.4384 116.831L73.7643 116.973L78.7967 105.672L74.9754 117.44L75.3133 117.549L79.1369 105.783L76.5648 117.885L76.9146 117.959L79.4867 105.857L78.1923 118.161L78.5468 118.199L79.8412 105.895V118.265H80.1981V105.895L81.4901 118.199L81.847 118.161L80.5526 105.857L83.1247 117.959L83.4745 117.885L80.9024 105.783L84.726 117.549L85.0639 117.44L81.2403 105.672L86.2726 116.973L86.5986 116.831L81.5662 105.526L87.7526 116.241L88.0619 116.062L81.8756 105.348L89.1492 115.358L89.4371 115.149L82.1658 105.139L90.4436 114.332L90.7077 114.094L82.4299 104.901L91.6238 113.178L91.8641 112.914L82.6703 104.634L92.6778 111.908L92.8872 111.618L82.8796 104.346L93.5939 110.533L93.7723 110.223L83.0581 104.037L94.36 109.069L94.5051 108.743L83.2032 103.711L94.9691 107.535L95.0786 107.194L83.3127 103.371L95.4141 105.943L95.4878 105.595L83.3864 103.023L95.6901 104.315L95.7281 103.961L83.4245 102.669H95.7971V102.312H83.4245L95.7281 101.018Z" fill="#233063"/>
<path id="Vector_7" d="M119.067 78.0418L119.05 77.6849L106.697 78.3321L118.915 76.3977L118.857 76.0455L106.64 77.9799L118.589 74.7773L118.496 74.4323L106.547 77.6349L118.096 73.2022L117.968 72.8691L106.418 77.3018L117.442 71.6866L117.28 71.3677L106.256 76.9854L116.633 70.247L116.438 69.9472L106.061 76.6856L115.676 68.898L115.453 68.6219L105.838 76.4072L114.587 67.6583L114.334 67.4061L105.585 76.155L113.371 66.54L113.095 66.3164L105.307 75.9313L112.045 65.555L111.746 65.3599L105.01 75.7362L110.625 64.7127L110.306 64.5509L104.691 75.5744L109.124 64.025L108.79 63.8966L104.358 75.4459L107.56 63.4968L107.215 63.404L104.013 75.3531L105.947 63.1352L105.595 63.0781L103.661 75.2984L104.308 62.9424L103.951 62.9258L103.304 75.2794L102.656 62.9258L102.3 62.9424L102.947 75.2984L101.012 63.0781L100.66 63.1352L102.595 75.3531L99.392 63.404L99.047 63.4968L102.25 75.4459L97.8169 63.8966L97.4838 64.025L101.917 75.5744L96.3012 64.5509L95.9824 64.7127L101.598 75.7362L94.8617 65.3599L94.5619 65.555L101.3 75.9313L93.5126 66.3164L93.2366 66.54L101.022 76.155L92.273 67.4061L92.0208 67.6583L100.77 76.4072L91.1547 68.6219L90.931 68.898L100.544 76.6856L90.1696 69.9472L89.9745 70.247L100.351 76.9854L89.3274 71.3677L89.1656 71.6866L100.189 77.3018L88.6397 72.8691L88.5112 73.2022L100.061 77.6349L88.1115 74.4323L88.0187 74.7773L99.9678 77.9799L87.7499 76.0455L87.6927 76.3977L99.9107 78.3321L87.5571 77.6849L87.5381 78.0418L99.8941 78.689L87.5381 79.3362L87.5571 79.6931L99.9107 79.0459L87.6927 80.9803L87.7499 81.3324L99.9678 79.398L88.0187 82.6006L88.1115 82.9456L100.061 79.743L88.5112 84.1758L88.6397 84.5089L100.189 80.0761L89.1656 85.6914L89.3274 86.0102L100.351 80.3926L89.9745 87.1309L90.1696 87.4307L100.544 80.6924L90.931 88.48L91.1547 88.756L100.77 80.9708L92.0208 89.7197L92.273 89.9719L101.022 81.223L93.2366 90.838L93.5126 91.0616L101.3 81.4467L94.5619 91.823L94.8617 92.0181L101.598 81.6418L95.9824 92.6653L96.3012 92.8271L101.917 81.8036L97.4838 93.3529L97.8169 93.4814L102.25 81.932L99.047 93.8811L99.392 93.9739L102.595 82.0248L100.66 94.2428L101.012 94.2999L102.947 82.0796L102.3 94.4355L102.656 94.4546L103.304 82.0986L103.951 94.4546L104.308 94.4355L103.661 82.0796L105.595 94.2999L105.947 94.2428L104.013 82.0248L107.215 93.9739L107.56 93.8811L104.358 81.932L108.79 93.4814L109.124 93.3529L104.691 81.8036L110.306 92.8271L110.625 92.6653L105.01 81.6418L111.746 92.0181L112.045 91.823L105.307 81.4467L113.095 91.0616L113.371 90.838L105.585 81.223L114.334 89.9719L114.587 89.7197L105.838 80.9708L115.453 88.756L115.676 88.48L106.061 80.6924L116.438 87.4307L116.633 87.1309L106.256 80.3926L117.28 86.0102L117.442 85.6914L106.418 80.0761L117.968 84.5089L118.096 84.1758L106.547 79.743L118.496 82.9456L118.589 82.6006L106.64 79.398L118.857 81.3324L118.915 80.9803L106.697 79.0459L119.05 79.6931L119.067 79.3362L106.713 78.689L119.067 78.0418Z" fill="#233063"/>
<path id="Vector_8" d="M94.8954 31.8205L101.082 42.5347L93.8081 32.5248L93.5202 32.7341L100.791 42.7441L92.5137 33.5503L92.2496 33.7882L100.527 42.982L91.3335 34.7042L91.0932 34.9707L100.287 43.2485L90.2795 35.9772L90.0701 36.2651L100.08 43.5364L89.3634 37.3501L89.185 37.6594L99.8992 43.8457L88.5973 38.8134L88.4521 39.1393L99.7541 44.1717L87.9882 40.3481L87.8787 40.6883L99.6446 44.5119L87.5432 41.9398L87.4695 42.2896L99.5709 44.8593L87.2672 43.5673L87.2292 43.9218L99.5328 45.2162H87.1602V45.5731H99.5328L87.2292 46.8651L87.2672 47.2196L99.5709 45.9276L87.4695 48.4997L87.5432 48.8495L99.6446 46.275L87.8787 50.0986L87.9882 50.4389L99.7541 46.6153L88.4521 51.6476L88.5973 51.9736L99.8992 46.9412L89.185 53.1276L89.3634 53.4369L100.08 47.2506L90.0701 54.5219L90.2795 54.8121L100.287 47.5408L91.0932 55.8186L91.3335 56.0827L100.527 47.8049L92.2496 56.9988L92.5137 57.2391L100.791 48.0429L93.5202 58.0528L93.8081 58.2622L101.082 48.2523L94.8954 58.9689L95.2047 59.1473L101.391 48.4307L96.3587 59.735L96.6847 59.8802L101.717 48.5759L97.8934 60.3441L98.2337 60.4536L102.055 48.6877L99.4828 60.7891L99.8326 60.8628L102.405 48.7614L101.11 61.0651L101.467 61.1031L102.759 48.7995V61.1698H103.116V48.7995L104.41 61.1031L104.765 61.0651L103.471 48.7614L106.043 60.8628L106.392 60.7891L103.82 48.6877L107.644 60.4536L107.984 60.3441L104.161 48.5759L109.193 59.8802L109.519 59.735L104.487 48.4307L110.673 59.1473L110.98 58.9689L104.796 48.2523L112.067 58.2622L112.355 58.0528L105.084 48.0429L113.362 57.2391L113.628 56.9988L105.35 47.8049L114.544 56.0827L114.782 55.8186L105.588 47.5408L115.596 54.8121L115.808 54.5219L105.798 47.2506L116.512 53.4369L116.69 53.1276L105.976 46.9412L117.278 51.9736L117.423 51.6476L106.121 46.6153L117.887 50.4389L117.999 50.0986L106.231 46.275L118.332 48.8495L118.408 48.4997L106.307 45.9276L118.61 47.2196L118.646 46.8651L106.342 45.5731H118.715V45.2162H106.345L118.646 43.9218L118.61 43.5673L106.307 44.8593L118.408 42.2896L118.332 41.9398L106.231 44.5119L117.999 40.6883L117.887 40.3481L106.121 44.1717L117.423 39.1393L117.278 38.8134L105.976 43.8457L116.69 37.6594L116.512 37.3501L105.798 43.5364L115.808 36.2651L115.596 35.9772L105.588 43.2485L114.782 34.9707L114.544 34.7042L105.35 42.982L113.628 33.7882L113.362 33.5503L105.084 42.7441L112.355 32.7341L112.067 32.5248L104.796 42.5347L110.98 31.8205L110.673 31.642L104.487 42.3562L109.519 31.0543L109.193 30.9092L104.161 42.2111L107.984 30.4452L107.644 30.3334L103.82 42.1016L106.392 30.0003L106.043 29.9241L103.471 42.0255L104.765 29.7219L104.41 29.6862L103.116 41.9874V29.6172H102.759V41.9874L101.467 29.6862L101.11 29.7219L102.405 42.0255L99.8326 29.9241L99.4828 30.0003L102.055 42.1016L98.2337 30.3334L97.8934 30.4452L101.717 42.2111L96.6847 30.9092L96.3587 31.0543L101.391 42.3562L95.2047 31.642L94.8954 31.8205Z" fill="#233063"/>
</g>
<path id="Vector_9" d="M62.9434 1.86426C68.0523 1.86436 72.6872 3.91461 76.0605 7.2373C80.6173 11.7236 86.7574 14.2532 93.168 14.4053L93.4668 14.4131H93.4795C103.039 14.7748 110.834 22.4263 111.424 31.9287L111.446 32.3828L111.447 32.3955H111.446C111.447 32.4385 111.452 32.5651 111.453 32.6689H111.454C111.599 39.0382 114.088 45.1351 118.511 49.6904L118.628 49.8096C121.948 53.1827 123.998 57.8149 123.998 62.9238C123.998 68.033 121.948 72.6659 118.628 76.0391C114.139 80.5983 111.609 86.7383 111.457 93.1514L111.449 93.4502V93.4629H111.448C111.083 103.179 103.188 111.068 93.4746 111.431L93.4756 111.432C93.2807 111.439 93.0814 111.443 92.8789 111.443L92.8799 111.444C86.4769 111.485 80.3701 114.148 75.6172 118.534C72.2867 121.609 67.834 123.486 62.9434 123.486H62.9189C58.0277 123.486 53.5752 121.606 50.2451 118.534C45.4922 114.148 39.3877 111.485 32.9824 111.444V111.443C32.7804 111.443 32.5796 111.439 32.3867 111.432V111.431C22.6732 111.068 14.7781 103.177 14.4131 93.4629V93.4502L14.4053 93.1514C14.2532 86.7385 11.7234 80.6008 7.23438 76.0391C3.91436 72.6659 1.86426 68.033 1.86426 62.9238C1.86429 57.9743 3.78864 53.4723 6.92969 50.1289L7.2373 49.8086C11.5916 45.3836 14.1024 39.4733 14.3877 33.2695L14.4082 32.6689C14.409 32.5651 14.4139 32.4384 14.415 32.3955L14.416 32.3828C14.7835 22.6717 22.6713 14.7806 32.3828 14.4131H32.3945L32.6943 14.4053C39.1049 14.2532 45.245 11.7236 49.8018 7.2373L50.1221 6.92969C53.4655 3.7887 57.9673 1.86432 62.9189 1.86426H62.9434Z" fill="white" stroke="#233063" stroke-width="2.27203"/>
</g>
</g>
</g>
</svg>
